# ProBuilder 5.0.7
# https://unity3d.com/unity/features/worldbuilding/probuilder
# 2/16/2024 7:38:59 PM

mtllib ./Plane.mtl
o Plane

g Plane
v 1.989517 0 -28.06888
v 1.989599 0.4320807 -12.31299
v 6.927891 4.894573 -28.06888
v 6.927588 4.816791 -12.31299
v 11.06489 11.40241 -28.06781
v 11.06713 11.32609 -12.31192
v 1.989681 0 3.44289
v 1.98964 0.4320807 -4.435052
v 6.927629 3.254845 -4.435052
v 6.92767 3.254845 3.44289
v 11.06717 3.216345 -4.434516
v 11.06722 3.216345 3.442892
v -14.53569 0 -28.06883
v -2.140466 0 -28.06886
v -2.140524 0 -12.31298
v -14.53589 0 -12.31296
v -2.140553 0 -4.435039
v -14.53599 0 -4.435025
v -2.140582 0 3.4429
v -14.53609 0 3.442909

vt -1.413053 -28.09083
vt -1.717275 -12.33195
vt -8.366066 -28.09083
vt -8.311095 -12.339
vt -28.04713 7.894186
vt -12.29133 7.802018
vt -28.03316 15.60563
vt -12.27735 15.51607
vt -1.616147 3.469664
vt -1.868142 -4.41442
vt -7.525582 -4.400369
vt -7.525616 3.47532
vt -1.868108 -12.29011
vt -8.436615 -12.3064
vt -7.641866 3.462866
vt -7.64183 -4.400616
vt -11.26425 -4.278717
vt -11.26429 3.584231
vt -8.385111 -12.3473
vt -15.12358 -12.57365
vt 14.52694 -28.07082
vt 2.139177 -28.0689
vt 2.139235 -12.31319
vt 14.52713 -12.31511
vt -1.988318 -28.06828
vt -2.003397 -12.31451
vt 2.139263 -4.435329
vt 14.52723 -4.437259
vt -2.003438 -4.436646
vt 2.139292 3.442529
vt 14.52733 3.440596
vt -1.988482 3.443167

vn -0.7038165 0.7101149 -0.01947014
vn -0.6838927 0.728933 -0.007895735
vn -0.663969 0.7477511 0.003678669
vn -0.8439141 0.5364719 0.002632176
vn -0.8438666 0.5365463 0.002675794
vn -0.5230306 0.8510592 0.0237838
vn -0.4957172 0.8671805 0.04756474
vn -0.5503442 0.8349379 2.864772E-06
vn -0.5765298 0.8016683 0.08482023
vn -0.6639735 0.7477561 3.456261E-06
vn -0.4890861 0.8555805 0.169637
vn 0.009300035 0.9999567 -7.867703E-08
vn -0.4163534 0.6151709 0.4115463
vn -0.8390939 0.5335989 0.1058001
vn 0.006387183 0.6967429 0.7172925
vn 0 1 0
vn -0.05202462 0.9970982 -0.01370677
vn -1.645827E-07 0.9996242 -0.02741315
vn -0.1040491 0.9945722 -3.841719E-07
vn -0.05194635 0.9965479 0.02723439
vn -0.1038927 0.9930959 0.05446877

usemtl Lit
f 4/4/3 3/3/2 1/1/1 2/2/2
f 6/8/5 5/7/5 3/5/4 4/6/5
f 7/9/6 10/12/8 9/11/6 8/10/7
f 8/10/9 9/11/11 4/14/9 2/13/10
f 10/15/12 12/18/12 11/17/12 9/16/12
f 9/16/13 11/17/15 6/20/13 4/19/14
f 15/23/16 14/22/16 13/21/16 16/24/16
f 15/23/19 2/26/17 1/25/18 14/22/17
f 17/27/16 15/23/16 16/24/16 18/28/16
f 17/27/19 8/29/19 2/26/19 15/23/19
f 19/30/16 17/27/16 18/28/16 20/31/16
f 19/30/16 7/32/20 8/29/21 17/27/20

