# ProBuilder 5.0.7
# https://unity3d.com/unity/features/worldbuilding/probuilder
# 2/22/2024 6:46:35 PM

mtllib ./Cylinder.mtl
o Cylinder

g Cylinder
v -0.5 -0.5 0
v -0.5 0.5 0
v -0.4842916 -0.5 0.1243449
v -0.4842916 0.5 0.1243449
v -0.4381534 -0.5 0.2408768
v -0.4381534 0.5 0.2408768
v -0.3644843 -0.5 0.3422736
v -0.3644843 0.5 0.3422736
v -0.2679134 -0.5 0.4221639
v -0.2679134 0.5 0.4221639
v -0.1545085 -0.5 0.4755283
v -0.1545085 0.5 0.4755283
v -0.03139525 -0.5 0.4990134
v -0.03139525 0.5 0.4990134
v 0.09369066 -0.5 0.4911436
v 0.09369066 0.5 0.4911436
v 0.2128896 -0.5 0.4524136
v 0.2128896 0.5 0.4524136
v 0.3187121 -0.5 0.3852566
v 0.3187121 0.5 0.3852566
v 0.4045085 -0.5 0.2938926
v 0.4045085 0.5 0.2938926
v 0.4648882 -0.5 0.1840623
v 0.4648882 0.5 0.1840623
v 0.4960574 -0.5 0.0626666
v 0.4960574 0.5 0.0626666
v 0.4960574 -0.5 -0.06266657
v 0.4960574 0.5 -0.06266657
v 0.4648882 -0.5 -0.1840623
v 0.4648882 0.5 -0.1840623
v 0.4045085 -0.5 -0.2938926
v 0.4045085 0.5 -0.2938926
v 0.3187121 -0.5 -0.3852565
v 0.3187121 0.5 -0.3852565
v 0.2128897 -0.5 -0.4524135
v 0.2128897 0.5 -0.4524135
v 0.09369045 -0.5 -0.4911437
v 0.09369045 0.5 -0.4911437
v -0.03139528 -0.5 -0.4990134
v -0.03139528 0.5 -0.4990134
v -0.1545086 -0.5 -0.4755282
v -0.1545086 0.5 -0.4755282
v -0.2679133 -0.5 -0.422164
v -0.2679133 0.5 -0.422164
v -0.3644843 -0.5 -0.3422736
v -0.3644843 0.5 -0.3422736
v -0.4381533 -0.5 -0.2408769
v -0.4381533 0.5 -0.2408769
v -0.4842916 -0.5 -0.1243449
v -0.4842916 0.5 -0.1243449
v 0 -0.5 0
v 0 0.5 0

vt -0.06266661 -0.5
vt -0.06266661 0.5
vt 0.06266662 -0.5
vt 0.06266662 0.5
vt -0.5 0
vt 0 0
vt -0.4842916 0.1243449
vt 0.5 0
vt 0.4842916 0.1243449
vt -0.4381534 0.2408768
vt 0.4381534 0.2408768
vt -0.3644843 0.3422736
vt 0.3644843 0.3422736
vt -0.2679134 0.4221639
vt 0.2679134 0.4221639
vt -0.1545085 0.4755283
vt 0.1545085 0.4755283
vt -0.03139525 0.4990134
vt 0.03139525 0.4990134
vt 0.09369066 0.4911436
vt -0.09369066 0.4911436
vt 0.2128896 0.4524136
vt -0.2128896 0.4524136
vt 0.3187121 0.3852566
vt -0.3187121 0.3852566
vt 0.4045085 0.2938926
vt -0.4045085 0.2938926
vt 0.4648882 0.1840623
vt -0.4648882 0.1840623
vt 0.4960574 0.0626666
vt -0.4960574 0.0626666
vt 0.4960574 -0.06266657
vt -0.4960574 -0.06266657
vt 0.4648882 -0.1840623
vt -0.4648882 -0.1840623
vt 0.4045085 -0.2938926
vt -0.4045085 -0.2938926
vt 0.3187121 -0.3852565
vt -0.3187121 -0.3852565
vt 0.2128897 -0.4524135
vt -0.2128897 -0.4524135
vt 0.09369045 -0.4911437
vt -0.09369045 -0.4911437
vt -0.03139528 -0.4990134
vt 0.03139528 -0.4990134
vt -0.1545086 -0.4755282
vt 0.1545086 -0.4755282
vt -0.2679133 -0.422164
vt 0.2679133 -0.422164
vt -0.3644843 -0.3422736
vt 0.3644843 -0.3422736
vt -0.4381533 -0.2408769
vt 0.4381533 -0.2408769
vt -0.4842916 -0.1243449
vt 0.4842916 -0.1243449

vn -1 0 -2.252939E-08
vn -0.9685832 0 0.2486898
vn -0.8763067 0 0.4817536
vn -0.7289686 0 0.6845471
vn -0.5358269 0 0.8443279
vn -0.309017 0 0.9510565
vn -0.06279043 0 0.9980267
vn 0.1873813 0 0.9822873
vn 0.4257792 0 0.9048271
vn 0.6374241 0 0.7705132
vn 0.809017 0 0.5877852
vn 0.9297765 0 0.3681246
vn 0.9921147 0 0.1253332
vn 0.9921147 0 -0.1253332
vn 0.9297765 0 -0.3681246
vn 0.809017 0 -0.5877852
vn 0.6374242 0 -0.7705131
vn 0.4257794 0 -0.904827
vn 0.1873811 0 -0.9822873
vn -0.06279071 0 -0.9980267
vn -0.309017 0 -0.9510565
vn -0.5358267 0 -0.844328
vn -0.7289686 0 -0.6845471
vn -0.8763067 0 -0.4817536
vn -0.9685832 0 -0.2486899
vn 0 -1 0
vn 0 1 0

usemtl Lit
f 1/5/26 51/6/26 3/7/26
f 3/7/26 51/6/26 5/10/26
f 5/10/26 51/6/26 7/12/26
f 7/12/26 51/6/26 9/14/26
f 9/14/26 51/6/26 11/16/26
f 11/16/26 51/6/26 13/18/26
f 13/18/26 51/6/26 15/20/26
f 15/20/26 51/6/26 17/22/26
f 17/22/26 51/6/26 19/24/26
f 19/24/26 51/6/26 21/26/26
f 21/26/26 51/6/26 23/28/26
f 23/28/26 51/6/26 25/30/26
f 25/30/26 51/6/26 27/32/26
f 27/32/26 51/6/26 29/34/26
f 29/34/26 51/6/26 31/36/26
f 31/36/26 51/6/26 33/38/26
f 33/38/26 51/6/26 35/40/26
f 35/40/26 51/6/26 37/42/26
f 37/42/26 51/6/26 39/44/26
f 39/44/26 51/6/26 41/46/26
f 41/46/26 51/6/26 43/48/26
f 43/48/26 51/6/26 45/50/26
f 45/50/26 51/6/26 47/52/26
f 47/52/26 51/6/26 49/54/26
f 49/54/26 51/6/26 1/5/26
f 4/9/27 52/6/27 2/8/27
f 6/11/27 52/6/27 4/9/27
f 8/13/27 52/6/27 6/11/27
f 10/15/27 52/6/27 8/13/27
f 12/17/27 52/6/27 10/15/27
f 14/19/27 52/6/27 12/17/27
f 16/21/27 52/6/27 14/19/27
f 18/23/27 52/6/27 16/21/27
f 20/25/27 52/6/27 18/23/27
f 22/27/27 52/6/27 20/25/27
f 24/29/27 52/6/27 22/27/27
f 26/31/27 52/6/27 24/29/27
f 28/33/27 52/6/27 26/31/27
f 30/35/27 52/6/27 28/33/27
f 32/37/27 52/6/27 30/35/27
f 34/39/27 52/6/27 32/37/27
f 36/41/27 52/6/27 34/39/27
f 38/43/27 52/6/27 36/41/27
f 40/45/27 52/6/27 38/43/27
f 42/47/27 52/6/27 40/45/27
f 44/49/27 52/6/27 42/47/27
f 46/51/27 52/6/27 44/49/27
f 48/53/27 52/6/27 46/51/27
f 50/55/27 52/6/27 48/53/27
f 2/8/27 52/6/27 50/55/27
f 4/4/2 2/2/1 1/1/1
f 1/1/1 3/3/2 4/4/2
f 6/4/3 4/2/2 3/1/2
f 3/1/2 5/3/3 6/4/3
f 8/4/4 6/2/3 5/1/3
f 5/1/3 7/3/4 8/4/4
f 10/4/5 8/2/4 7/1/4
f 7/1/4 9/3/5 10/4/5
f 12/4/6 10/2/5 9/1/5
f 9/1/5 11/3/6 12/4/6
f 14/4/7 12/2/6 11/1/6
f 11/1/6 13/3/7 14/4/7
f 16/4/8 14/2/7 13/1/7
f 13/1/7 15/3/8 16/4/8
f 18/4/9 16/2/8 15/1/8
f 15/1/8 17/3/9 18/4/9
f 20/4/10 18/2/9 17/1/9
f 17/1/9 19/3/10 20/4/10
f 22/4/11 20/2/10 19/1/10
f 19/1/10 21/3/11 22/4/11
f 24/4/12 22/2/11 21/1/11
f 21/1/11 23/3/12 24/4/12
f 26/4/13 24/2/12 23/1/12
f 23/1/12 25/3/13 26/4/13
f 28/4/14 26/2/13 25/1/13
f 25/1/13 27/3/14 28/4/14
f 30/4/15 28/2/14 27/1/14
f 27/1/14 29/3/15 30/4/15
f 32/4/16 30/2/15 29/1/15
f 29/1/15 31/3/16 32/4/16
f 34/4/17 32/2/16 31/1/16
f 31/1/16 33/3/17 34/4/17
f 36/4/18 34/2/17 33/1/17
f 33/1/17 35/3/18 36/4/18
f 38/4/19 36/2/18 35/1/18
f 35/1/18 37/3/19 38/4/19
f 40/4/20 38/2/19 37/1/19
f 37/1/19 39/3/20 40/4/20
f 42/4/21 40/2/20 39/1/20
f 39/1/20 41/3/21 42/4/21
f 44/4/22 42/2/21 41/1/21
f 41/1/21 43/3/22 44/4/22
f 46/4/23 44/2/22 43/1/22
f 43/1/22 45/3/23 46/4/23
f 48/4/24 46/2/23 45/1/23
f 45/1/23 47/3/24 48/4/24
f 50/4/25 48/2/24 47/1/24
f 47/1/24 49/3/25 50/4/25
f 2/4/1 50/2/25 49/1/25
f 49/1/25 1/3/1 2/4/1

